<svg width="161" height="46" viewBox="0 0 161 46" fill="none" xmlns="http://www.w3.org/2000/svg">
<g filter="url(#filter0_d_8_496)">
<rect x="4" width="153" height="38" rx="19" fill="#BB86FC" shape-rendering="crispEdges"/>
<path d="M51.6985 24V13.0909H55.587C56.4322 13.0909 57.1335 13.2365 57.6911 13.5277C58.2521 13.8189 58.6712 14.2219 58.9482 14.7369C59.2251 15.2482 59.3636 15.8395 59.3636 16.5107C59.3636 17.1783 59.2234 17.766 58.9428 18.2738C58.6658 18.7781 58.2468 19.1705 57.6857 19.451C57.1282 19.7315 56.4268 19.8718 55.5817 19.8718H52.636V18.4549H55.4325C55.9652 18.4549 56.3984 18.3786 56.7322 18.2259C57.0696 18.0732 57.3164 17.8512 57.4727 17.56C57.6289 17.2688 57.707 16.919 57.707 16.5107C57.707 16.0987 57.6271 15.7418 57.4673 15.44C57.3111 15.1381 57.0643 14.9073 56.7269 14.7475C56.3931 14.5842 55.9545 14.5025 55.4112 14.5025H53.3445V24H51.6985ZM57.0838 19.0781L59.7791 24H57.9041L55.2621 19.0781H57.0838ZM64.6624 24.1651C63.8563 24.1651 63.162 23.9929 62.5796 23.6484C62.0008 23.3004 61.5534 22.8121 61.2373 22.1836C60.9248 21.5515 60.7686 20.8111 60.7686 19.9624C60.7686 19.1243 60.9248 18.3857 61.2373 17.7464C61.5534 17.1072 61.9937 16.6083 62.5583 16.2496C63.1265 15.891 63.7906 15.7116 64.5505 15.7116C65.0122 15.7116 65.4596 15.788 65.8928 15.9407C66.3261 16.0934 66.7149 16.3331 67.0594 16.6598C67.4039 16.9865 67.6755 17.4109 67.8744 17.9329C68.0732 18.4513 68.1727 19.0817 68.1727 19.8239V20.3885H61.6688V19.1953H66.6119C66.6119 18.7763 66.5267 18.4052 66.3563 18.082C66.1858 17.7553 65.9461 17.4979 65.6372 17.3097C65.3318 17.1214 64.9731 17.0273 64.5612 17.0273C64.1137 17.0273 63.7231 17.1374 63.3893 17.3576C63.059 17.5742 62.8034 17.8583 62.6222 18.2099C62.4447 18.5579 62.3559 18.9361 62.3559 19.3445V20.2766C62.3559 20.8235 62.4518 21.2887 62.6436 21.6722C62.8389 22.0558 63.1105 22.3487 63.4585 22.5511C63.8066 22.75 64.2132 22.8494 64.6784 22.8494C64.9802 22.8494 65.2554 22.8068 65.504 22.7216C65.7526 22.6328 65.9674 22.5014 66.1485 22.3274C66.3296 22.1534 66.4681 21.9386 66.564 21.6829L68.0715 21.9545C67.9507 22.3984 67.7341 22.7873 67.4216 23.1211C67.1127 23.4513 66.7238 23.7088 66.2551 23.8935C65.7899 24.0746 65.259 24.1651 64.6624 24.1651ZM73.3702 27.2386C72.7203 27.2386 72.161 27.1534 71.6923 26.983C71.2271 26.8125 70.8471 26.587 70.5524 26.3065C70.2576 26.0259 70.0375 25.7188 69.8919 25.3849L71.2608 24.8203C71.3567 24.9766 71.4846 25.1417 71.6444 25.3157C71.8077 25.4933 72.0279 25.6442 72.3049 25.7685C72.5854 25.8928 72.9458 25.9549 73.3862 25.9549C73.9899 25.9549 74.4888 25.8075 74.883 25.5128C75.2772 25.2216 75.4743 24.7564 75.4743 24.1172V22.5085H75.373C75.2772 22.6825 75.1387 22.8761 74.9576 23.0891C74.78 23.3022 74.535 23.4869 74.2225 23.6431C73.91 23.7994 73.5034 23.8775 73.0027 23.8775C72.3564 23.8775 71.774 23.7266 71.2555 23.4247C70.7406 23.1193 70.3322 22.6701 70.0304 22.0771C69.7321 21.4805 69.5829 20.7472 69.5829 19.8771C69.5829 19.0071 69.7303 18.2614 70.025 17.6399C70.3233 17.0185 70.7317 16.5426 71.2502 16.2124C71.7686 15.8786 72.3564 15.7116 73.0133 15.7116C73.5211 15.7116 73.9313 15.7969 74.2438 15.9673C74.5563 16.1342 74.7995 16.3295 74.9735 16.5533C75.1511 16.777 75.2878 16.9741 75.3837 17.1445H75.5009V15.8182H77.0616V24.1811C77.0616 24.8842 76.8983 25.4613 76.5716 25.9123C76.2449 26.3633 75.8027 26.6971 75.2452 26.9137C74.6912 27.1303 74.0662 27.2386 73.3702 27.2386ZM73.3542 22.5565C73.8123 22.5565 74.1994 22.4499 74.5154 22.2369C74.835 22.0202 75.0765 21.7113 75.2399 21.31C75.4068 20.9052 75.4902 20.4205 75.4902 19.8558C75.4902 19.3054 75.4086 18.8207 75.2452 18.4016C75.0819 17.9826 74.8422 17.6559 74.5261 17.4215C74.21 17.1836 73.8194 17.0646 73.3542 17.0646C72.8748 17.0646 72.4753 17.1889 72.1557 17.4375C71.8361 17.6825 71.5946 18.0163 71.4313 18.4389C71.2715 18.8615 71.1916 19.3338 71.1916 19.8558C71.1916 20.392 71.2733 20.8626 71.4366 21.2674C71.6 21.6722 71.8414 21.9883 72.161 22.2156C72.4842 22.4428 72.8819 22.5565 73.3542 22.5565ZM79.1976 24V15.8182H80.7903V24H79.1976ZM80.002 14.5558C79.725 14.5558 79.487 14.4634 79.2882 14.2788C79.0929 14.0906 78.9952 13.8668 78.9952 13.6076C78.9952 13.3448 79.0929 13.1211 79.2882 12.9364C79.487 12.7482 79.725 12.6541 80.002 12.6541C80.2789 12.6541 80.5151 12.7482 80.7104 12.9364C80.9093 13.1211 81.0087 13.3448 81.0087 13.6076C81.0087 13.8668 80.9093 14.0906 80.7104 14.2788C80.5151 14.4634 80.2789 14.5558 80.002 14.5558ZM89.064 17.8157L87.6205 18.0714C87.5601 17.8867 87.4642 17.7109 87.3328 17.544C87.205 17.3771 87.031 17.2404 86.8108 17.1339C86.5906 17.0273 86.3154 16.9741 85.9852 16.9741C85.5342 16.9741 85.1578 17.0753 84.8559 17.2777C84.5541 17.4766 84.4031 17.734 84.4031 18.0501C84.4031 18.3235 84.5044 18.5437 84.7068 18.7106C84.9092 18.8775 85.2359 19.0142 85.6869 19.1207L86.9866 19.419C87.7394 19.593 88.3005 19.8612 88.6698 20.2234C89.0392 20.5856 89.2238 21.0561 89.2238 21.6349C89.2238 22.125 89.0818 22.5618 88.7977 22.9453C88.5171 23.3253 88.1247 23.6236 87.6205 23.8402C87.1198 24.0568 86.5392 24.1651 85.8786 24.1651C84.9624 24.1651 84.2149 23.9698 83.6361 23.5792C83.0573 23.185 82.7021 22.6257 82.5708 21.9013L84.1102 21.6669C84.2061 22.0682 84.4031 22.3718 84.7014 22.5778C84.9997 22.7802 85.3886 22.8814 85.868 22.8814C86.39 22.8814 86.8073 22.7731 87.1198 22.5565C87.4323 22.3363 87.5885 22.0682 87.5885 21.7521C87.5885 21.4964 87.4926 21.2816 87.3009 21.1076C87.1127 20.9336 86.8232 20.8022 86.4326 20.7134L85.0477 20.4098C84.2842 20.2358 83.7195 19.9588 83.3538 19.5788C82.9916 19.1989 82.8105 18.7177 82.8105 18.1353C82.8105 17.6523 82.9454 17.2298 83.2153 16.8675C83.4852 16.5053 83.858 16.223 84.3339 16.0206C84.8097 15.8146 85.3548 15.7116 85.9692 15.7116C86.8534 15.7116 87.5494 15.9034 88.0573 16.2869C88.5651 16.6669 88.9007 17.1765 89.064 17.8157ZM94.7942 15.8182V17.0966H90.3251V15.8182H94.7942ZM91.5236 13.858H93.1163V21.5977C93.1163 21.9066 93.1625 22.1392 93.2548 22.2955C93.3471 22.4482 93.4661 22.5529 93.6117 22.6097C93.7608 22.663 93.9224 22.6896 94.0964 22.6896C94.2243 22.6896 94.3361 22.6808 94.432 22.663C94.5279 22.6452 94.6025 22.631 94.6557 22.6204L94.9434 23.9361C94.851 23.9716 94.7196 24.0071 94.5492 24.0426C94.3787 24.0817 94.1657 24.103 93.91 24.1065C93.4909 24.1136 93.1003 24.0391 92.7381 23.8828C92.3759 23.7266 92.0829 23.4851 91.8592 23.1584C91.6355 22.8317 91.5236 22.4215 91.5236 21.9279V13.858ZM99.9944 24.1651C99.1883 24.1651 98.4941 23.9929 97.9117 23.6484C97.3328 23.3004 96.8854 22.8121 96.5693 22.1836C96.2568 21.5515 96.1006 20.8111 96.1006 19.9624C96.1006 19.1243 96.2568 18.3857 96.5693 17.7464C96.8854 17.1072 97.3257 16.6083 97.8904 16.2496C98.4585 15.891 99.1226 15.7116 99.8825 15.7116C100.344 15.7116 100.792 15.788 101.225 15.9407C101.658 16.0934 102.047 16.3331 102.391 16.6598C102.736 16.9865 103.008 17.4109 103.206 17.9329C103.405 18.4513 103.505 19.0817 103.505 19.8239V20.3885H97.0008V19.1953H101.944C101.944 18.7763 101.859 18.4052 101.688 18.082C101.518 17.7553 101.278 17.4979 100.969 17.3097C100.664 17.1214 100.305 17.0273 99.8932 17.0273C99.4458 17.0273 99.0551 17.1374 98.7213 17.3576C98.3911 17.5742 98.1354 17.8583 97.9543 18.2099C97.7767 18.5579 97.6879 18.9361 97.6879 19.3445V20.2766C97.6879 20.8235 97.7838 21.2887 97.9756 21.6722C98.1709 22.0558 98.4426 22.3487 98.7906 22.5511C99.1386 22.75 99.5452 22.8494 100.01 22.8494C100.312 22.8494 100.587 22.8068 100.836 22.7216C101.085 22.6328 101.299 22.5014 101.481 22.3274C101.662 22.1534 101.8 21.9386 101.896 21.6829L103.403 21.9545C103.283 22.3984 103.066 22.7873 102.754 23.1211C102.445 23.4513 102.056 23.7088 101.587 23.8935C101.122 24.0746 100.591 24.1651 99.9944 24.1651ZM105.272 24V15.8182H106.811V17.1179H106.896C107.046 16.6776 107.308 16.3313 107.685 16.0792C108.065 15.8235 108.494 15.6957 108.974 15.6957C109.073 15.6957 109.191 15.6992 109.325 15.7063C109.464 15.7134 109.572 15.7223 109.65 15.733V17.2564C109.586 17.2386 109.473 17.2191 109.309 17.1978C109.146 17.1729 108.983 17.1605 108.819 17.1605C108.443 17.1605 108.107 17.2404 107.813 17.4002C107.521 17.5565 107.291 17.7749 107.12 18.0554C106.95 18.3324 106.865 18.6484 106.865 19.0036V24H105.272Z" fill="black" fill-opacity="0.87"/>
</g>
<defs>
<filter id="filter0_d_8_496" x="0" y="0" width="161" height="46" filterUnits="userSpaceOnUse" color-interpolation-filters="sRGB">
<feFlood flood-opacity="0" result="BackgroundImageFix"/>
<feColorMatrix in="SourceAlpha" type="matrix" values="0 0 0 0 0 0 0 0 0 0 0 0 0 0 0 0 0 0 127 0" result="hardAlpha"/>
<feOffset dy="4"/>
<feGaussianBlur stdDeviation="2"/>
<feComposite in2="hardAlpha" operator="out"/>
<feColorMatrix type="matrix" values="0 0 0 0 0 0 0 0 0 0 0 0 0 0 0 0 0 0 0.25 0"/>
<feBlend mode="normal" in2="BackgroundImageFix" result="effect1_dropShadow_8_496"/>
<feBlend mode="normal" in="SourceGraphic" in2="effect1_dropShadow_8_496" result="shape"/>
</filter>
</defs>
</svg>
