<svg width="153" height="38" viewBox="0 0 153 38" fill="none" xmlns="http://www.w3.org/2000/svg">
    <rect width="153" height="38" rx="19" fill="#BB86FC"/>
    <path d="M54.199 24V13.09h1.645v9.493h4.944V24h-6.59zm17.518-5.454c0 1.164-.213 2.166-.64 3.004-.426.834-1.01 1.477-1.752 1.928-.739.447-1.579.671-2.52.671-.944 0-1.788-.224-2.53-.671-.738-.451-1.32-1.096-1.747-1.934-.426-.838-.64-1.837-.64-2.998 0-1.165.214-2.165.64-3 .426-.837 1.009-1.48 1.747-1.928.742-.45 1.586-.676 2.53-.676.941 0 1.781.225 2.52.676.742.448 1.326 1.09 1.752 1.928.427.835.64 1.835.64 3zm-1.63 0c0-.888-.144-1.636-.432-2.243-.284-.61-.674-1.073-1.172-1.385a3.044 3.044 0 0 0-1.678-.474c-.628 0-1.19.158-1.683.474-.493.313-.884.774-1.172 1.385-.284.607-.426 1.355-.426 2.242 0 .888.142 1.637.426 2.248.288.608.679 1.07 1.172 1.385a3.08 3.08 0 0 0 1.683.469 3.07 3.07 0 0 0 1.678-.469c.498-.316.888-.777 1.172-1.385.288-.61.432-1.36.432-2.247zm11.065-2.009a3.327 3.327 0 0 0-.416-.868 2.657 2.657 0 0 0-1.427-1.081 3.277 3.277 0 0 0-.996-.144c-.615 0-1.169.158-1.662.474-.494.316-.885.78-1.172 1.39-.284.608-.426 1.351-.426 2.232 0 .884.143 1.632.431 2.243.288.61.682 1.074 1.183 1.39.5.316 1.07.474 1.71.474.593 0 1.11-.12 1.55-.362a2.523 2.523 0 0 0 1.027-1.023c.246-.444.368-.966.368-1.566l.426.08h-3.121v-1.358h4.288v1.24c0 .917-.196 1.712-.586 2.387A3.99 3.99 0 0 1 80.72 23.6c-.682.366-1.463.55-2.344.55-.987 0-1.853-.228-2.599-.683-.742-.454-1.321-1.099-1.737-1.933-.415-.838-.623-1.833-.623-2.983 0-.87.121-1.651.362-2.344.242-.692.581-1.28 1.018-1.763.44-.487.957-.858 1.55-1.113a4.853 4.853 0 0 1 1.955-.39c.59 0 1.138.088 1.646.262.511.174.966.42 1.363.74a4.192 4.192 0 0 1 1.53 2.594h-1.69zm5.498-3.446V24h-1.646V13.09h1.646zm11.202 0V24H96.34l-5.545-8h-.1v8h-1.647V13.09h1.524l5.55 8.012h.101v-8.011h1.63z" fill="#000" fill-opacity=".87"/>
</svg>
